<?xml version="1.0" encoding="UTF-8" standalone="no"?> <svg xmlns="http://www.w3.org/2000/svg" viewBox="0 0 64 64"><g id="Outline"><path d="M44,27.6C43.83,18,38,2,32,2S20.17,18,20,27.6L9.26,39.32a1,1,0,0,0-.25.8l2,16A1,1,0,0,0,12,57h2a1,1,0,0,0,1-.85l1.9-12.37,9-2.69c.22.15.45.29.68.42l-2.39,4a1,1,0,0,0,.79,1.5l-2.71,3.39A1,1,0,0,0,23,52h2.52l-1.45,3.63A1,1,0,0,0,25,57h4.38l1.73,3.45a1,1,0,0,0,1.78,0L34.62,57H39a1,1,0,0,0,.93-1.37L38.48,52H40a1,1,0,0,0,.86-1.51L38.77,47a1,1,0,0,0,1.09-1.51l-2.39-4c.23-.13.46-.27.68-.42l9,2.69L49,56.15A1,1,0,0,0,50,57h2a1,1,0,0,0,1-.88l2-16a1,1,0,0,0-.25-.8ZM32,4c1.66,0,3.65,2.45,5.42,6H26.58C28.35,6.45,30.34,4,32,4Zm-6.34,8H38.34A44.22,44.22,0,0,1,42,28c0,8.93-5.18,13-10,13S22,36.93,22,28A44.22,44.22,0,0,1,25.66,12ZM15.71,42a1,1,0,0,0-.7.81L13.14,55h-.26L11.05,40.33l9.09-9.91A15.05,15.05,0,0,0,24,39.55Zm22.52,8H37a1,1,0,0,0-.93,1.37L37.52,55H34a1,1,0,0,0-.89.55L32,57.76l-1.11-2.21A1,1,0,0,0,30,55H26.48l1.45-3.63a1,1,0,0,0-.1-.93c-.4-.7-1.77-.37-2.75-.44l2.4-3h2.13c-.18.76-.91,2-.44,2.55l2,3a1,1,0,0,0,1.66,0l2-3c.47-.57-.26-1.79-.44-2.55h2Zm-5.95-3,.62,1.85L32,50.2l-.9-1.35L31.72,47Zm4.95-2H26.77l1.58-2.65a10.65,10.65,0,0,0,7.3,0ZM51.12,55h-.26L49,42.85a1,1,0,0,0-.7-.81L40,39.55a15.05,15.05,0,0,0,3.88-9.13L53,40.33Z"/><path d="M32,28a7,7,0,0,0,7-7c-.33-9.26-13.67-9.26-14,0A7,7,0,0,0,32,28Zm0-12c6.61.21,6.61,9.79,0,10C25.39,25.79,25.39,16.21,32,16Z"/><path d="M28.15,38.05l1.23-1.57a10.3,10.3,0,0,1-3.88-8h-2A12.3,12.3,0,0,0,28.15,38.05Z"/><rect x="30.2" y="37.99" width="2" height="1.98" transform="translate(-17.88 48.14) rotate(-61.9)"/><path d="M34.41,21.33l2,.17a4.14,4.14,0,0,0-4.06-4.45v2A2.13,2.13,0,0,1,34.41,21.33Z"/><path d="M58,14H49a3,3,0,0,1,0-6c1.38.06,1.86.05,2-1a3,3,0,0,1,5.61-1.47c.27.53.87.53,1.39.47a4,4,0,0,1,3.2,1.6l1.6-1.2A6,6,0,0,0,58,4a5,5,0,0,0-8.9,2c-6.67.08-6.77,9.78-.1,10h9a6,6,0,0,0,4.8-2.4l-1.6-1.2A4,4,0,0,1,58,14Z"/><path d="M12,27H2v2H12c6.66-.22,6.59-9.89-.1-10A5,5,0,0,0,3,17L2,17l0,2L3.5,19a1,1,0,0,0,.89-.5A3,3,0,0,1,10,20c.16,1,.66,1.07,2,1A3,3,0,0,1,12,27Z"/></g></svg>