<?xml version="1.0" encoding="utf-8"?>
<!-- Generator: Adobe Illustrator 23.0.3, SVG Export Plug-In . SVG Version: 6.00 Build 0)  -->
<svg version="1.1" id="Capa_1" xmlns="http://www.w3.org/2000/svg" xmlns:xlink="http://www.w3.org/1999/xlink" x="0px" y="0px"
	 viewBox="0 0 512 512" style="enable-background:new 0 0 512 512;" xml:space="preserve">
<style type="text/css">
	.st0{fill:url(#SVGID_1_);}
	.st1{fill:url(#SVGID_2_);}
	.st2{fill:url(#SVGID_3_);}
	.st3{fill:url(#SVGID_4_);}
	.st4{fill:url(#SVGID_5_);}
	.st5{fill:url(#SVGID_6_);}
	.st6{fill:url(#SVGID_7_);}
	.st7{fill:url(#SVGID_8_);}
	.st8{fill:url(#SVGID_9_);}
	.st9{fill:url(#SVGID_10_);}
	.st10{fill:url(#SVGID_11_);}
	.st11{fill:url(#SVGID_12_);}
	.st12{fill:url(#SVGID_13_);}
	.st13{fill:url(#SVGID_14_);}
	.st14{fill:url(#SVGID_15_);}
	.st15{fill:url(#SVGID_16_);}
	.st16{fill:url(#SVGID_17_);}
	.st17{fill:url(#SVGID_18_);}
	.st18{fill:url(#SVGID_19_);}
	.st19{fill:url(#SVGID_20_);}
	.st20{fill:url(#SVGID_21_);}
	.st21{fill:url(#SVGID_22_);}
	.st22{fill:url(#SVGID_23_);}
	.st23{fill:url(#SVGID_24_);}
	.st24{fill:url(#SVGID_25_);}
	.st25{fill:#9D9AE8;}
	.st26{fill:#FCC69D;}
	.st27{fill:#2D2A2B;}
	.st28{fill:#93CE92;}
	.st29{fill:#253E59;}
	.st30{fill:#DAD0D3;}
	.st31{fill:#FCFCFC;}
	.st32{fill:#F9F9F9;}
	.st33{fill:#ED4D67;}
	.st34{fill:#A30D2A;}
	.st35{fill:url(#SVGID_26_);}
	.st36{fill:url(#SVGID_27_);}
	.st37{fill:url(#SVGID_28_);}
	.st38{fill:url(#SVGID_29_);}
</style>
<g>
	<path d="M462,347.7c-10.5-13.2-20.9-28.1-41.6-25.1c-4,0.6-6.8-1.7-9.6-4.1c-33.9-28.6-71-37-114.5-23.5
		c-28.3,8.8-57.4,9.5-77.5-20.1c-4-5.9-9.9-10.6-15.1-15.6c-10.4-9.9-22.9-12.5-33.5-2.9c-10.6,9.6-20.4-0.6-30.8,1.9
		c-10.7,2.6-14.3,17.9-28,13.6c-15.4-0.4-26.9,6-32.4,18.8c-6.1,14.1-2.3,26.5,8,37c17.8,18.1,37.1,35,53.7,54.1
		c19,21.9,41.6,30.2,70.1,29c33.1-1.5,66.4-0.5,99.6-0.2c6,0.1,15.5-1.8,14.5,8.9c-1.6,16.6,9.6,25.4,19.7,35
		c13.7,13.1,29,13.4,42.6,0.2c23.8-23.1,47.4-46.5,70.6-70.2C468.8,373.4,470.7,358.7,462,347.7z M178.7,269c3.7-2.8,7.4-3,11.5-0.6
		c3.6,2.1,22.6,22.9,26.4,29.2c-13.4,1.5-35.8-10.9-39.8-21.9C175.8,272.9,176.4,270.8,178.7,269z M136.6,278.5
		c4.5-5.5,11.3-6.9,16.7-2.6c8,6.4,15.1,14.2,22.2,21.7c2.2,2.4-7.1,15.5-11.6,15.8c-1.6-1.3-3.6-2.8-5.4-4.6
		c-5.9-5.8-11.8-11.6-17.7-17.5C137.3,287.8,131.8,284.4,136.6,278.5z M331.6,399.3c-41.5-10.1-83.6-3.3-125.3-4.3
		c-20.5-0.5-36.9-5.3-51-20.9c-17.4-19.2-36.3-37-54.8-55.2c-8.4-8.3-13-17.2-3.2-26.8c9.2-9,18.2-4.9,25.5,3.5
		c14.7,17,34.8,29.3,43.8,51.6c3.8,9.4,13.6,14.4,24.1,14.6c20.2,0.4,40.5,0.2,60.7,0.1c5.4,0,11.3-0.3,11.4-7.4
		c0-8-6.4-8.2-12.3-8.2c-9.3,0-18.7,0-28,0c-9.9,0-19.7,0.4-29.6-0.1c-9.7-0.5-15.8-6.4-15.5-16c0.2-9.3,5.9-15.4,15.9-15.6
		c21.8-0.2,43.6-0.6,65.4-0.2c17.8,0.4,35.2-1.5,52.2-6.8c31.7-10,59.1-0.6,84.6,18.2c5.3,3.9,8.2,6.8,1.9,13
		c-19,18.4-37.5,37.3-56.3,55.9C338.4,397.5,336,400.4,331.6,399.3z M444.4,375.4c-22.4,22.3-44.8,44.6-67,67.1
		c-9.5,9.6-17.2,6.5-24.9-2.1c-7.1-7.8-18.7-14.8-6.9-26.9c23.5-24.1,47.5-47.8,71.4-71.5c2.1-2.1,5.1-3.2,7.7-4.7
		c12.1,2.8,18.9,11.5,24.8,20.4C453.9,364.3,449.6,370.3,444.4,375.4z"/>
	<path d="M425.2,184.5c-20.1-20.3-40.7-40-60.3-60.8c-14.9-15.8-32.4-22.8-54.1-22.5c-35.8,0.6-71.6,0.2-107.4,0.1
		c-9.7,0-16.7,0.3-17.1-14.6c-0.4-18.5-15.6-29.9-31.6-37c-14.6-6.5-25.4,2.1-35.4,12.4c-18.4,19-37.3,37.5-56.1,56.2
		c-24.9,24.8-24.9,36.4,0,60.7c7.5,7.3,15.8,11.8,26.4,10.4c4.6-0.6,7.8,0.7,11.2,3.6c34.3,29.2,72.1,37.5,115.9,23.5
		c28.7-9.1,57.4-8,77.2,21.2c3.7,5.5,9.3,9.8,14.1,14.4c10.9,10.5,23.7,12.4,35,2.6c10.2-8.8,19.4,0.9,29.3-1.2
		c10.9-2.3,14.3-17.6,28.1-13.7c14.9,0.6,27.2-5.9,32.4-18.4C438.8,207.6,435.7,195.1,425.2,184.5z M98.4,167
		c-10.7,11.1-18.4,6.9-27.3-2.1c-8.8-8.9-15.8-16.7-3.7-28.4c22.3-21.7,44.1-43.8,66-65.9c5-5,10.5-10.2,17.4-5.7
		c9,5.9,17.3,12.9,20.3,21.8c-0.4,7.5-3.7,10.8-7,14.1C142.2,122.8,120,144.6,98.4,167z M333,243.1c-4.3,3.1-8.7,2.7-12.6-0.8
		c-1.9-1.7-3.6-3.7-5.6-5.3c-7.4-6.2-14.8-12.4-22.3-18.6c1-1.4,2.1-2.9,3.1-4.3c14.4-1.5,32,8.2,38.6,20.9
		C335.8,238.2,335.8,241,333,243.1z M372.2,236.2c-4.8,2.7-10.2,3.3-14.4-0.5c-7.3-6.5-14-13.6-20.8-20.6c-1.8-1.8-3.7-4-0.8-6.4
		c3.9-3.3,7.5-7,11.8-9.7c1.9-1.2,29.4,27.3,29.5,30.1C377.2,232.6,374.9,234.7,372.2,236.2z M414.9,219.6
		c-9.9,10.1-19,4.2-26.5-4.3c-14.8-16.9-34.6-29.3-43.4-51.7c-3.7-9.5-14-13.5-24.6-13.6c-19.7-0.2-39.4-0.1-59.1-0.1
		c-5.4,0-11.3,0.1-11.7,7c-0.4,8,5.9,8.5,11.9,8.6c18.2,0.1,36.3,0.2,54.5,0c11-0.1,18.6,4.2,18.8,15.7c0.2,11.7-7.7,16.1-18.5,16.1
		c-14,0-28,0-42,0c-27.6-1.2-54.6,1.3-81.6,8.6c-28.8,7.8-53.9-3.4-76.7-20.7c-5.2-3.9-6.7-6.7-1.3-12c18.9-18.5,37.5-37.3,56.2-56
		c2.5-2.5,4.9-5.5,9.2-4.5c42.5,9.6,85.7,2.8,128.5,4c19,0.5,33.8,5.9,46.8,19.8c18,19.4,37.1,37.7,56,56.2
		C419.7,201,424.1,210.1,414.9,219.6z"/>
</g>
</svg>
