<?xml version="1.0" encoding="iso-8859-1"?>
<!-- Generator: Adobe Illustrator 16.0.0, SVG Export Plug-In . SVG Version: 6.00 Build 0)  -->
<!DOCTYPE svg PUBLIC "-//W3C//DTD SVG 1.1//EN" "http://www.w3.org/Graphics/SVG/1.1/DTD/svg11.dtd">
<svg version="1.1" xmlns="http://www.w3.org/2000/svg" xmlns:xlink="http://www.w3.org/1999/xlink" x="0px" y="0px" width="512px"
	 height="512px" viewBox="0 0 512 512" style="enable-background:new 0 0 512 512;" xml:space="preserve">
<g id="B_-_116_x2C__Achievement_x2C__aim_x2C__business_x2C__goal_x2C__mission_x2C__mountains_x2C__target">
	<g>
		<g>
			<path d="M406.493,358.179H269.471c-1.128,0-2.19-0.529-2.87-1.429l-57.058-75.52l-72.581,75.839
				c-0.679,0.708-1.617,1.109-2.599,1.109H87.47c-1.488,0-2.823-0.917-3.357-2.306c-0.534-1.39-0.158-2.964,0.947-3.961
				l173.096-156.198c1.456-1.315,3.7-1.219,5.037,0.215l145.928,156.198c0.979,1.047,1.242,2.574,0.671,3.888
				C409.222,357.329,407.926,358.179,406.493,358.179z M271.261,350.985h126.95l-137.86-147.563L96.824,350.985h36.003l74.44-77.781
				c0.729-0.761,1.749-1.162,2.808-1.104c1.052,0.062,2.025,0.581,2.66,1.423L271.261,350.985z"/>
		</g>
		<g>
			<path d="M471.643,358.179c-0.004,0-0.012,0.001-0.02,0h-65.13c-0.996,0-1.948-0.413-2.628-1.142l-74.681-79.931
				c-0.658-0.704-1.006-1.644-0.966-2.606c0.041-0.964,0.467-1.87,1.182-2.517l35.327-31.93c1.457-1.316,3.7-1.221,5.041,0.213
				L474.039,351.9c0.737,0.658,1.201,1.615,1.201,2.682C475.24,356.568,473.63,358.179,471.643,358.179z M408.055,350.985h55.287
				l-96.415-103.222l-29.989,27.105L408.055,350.985z"/>
		</g>
		<g>
			<path d="M422.267,322.729c-0.93,0-1.851-0.36-2.543-1.052l-17.861-17.845l-24.041,6.43c-0.921,0.248-1.905,0.117-2.732-0.362
				c-0.826-0.479-1.428-1.266-1.673-2.188l-6.246-23.501l-20.66-22.869c-0.64-0.708-0.972-1.642-0.923-2.595
				s0.474-1.847,1.183-2.487l17.961-16.208c1.455-1.314,3.697-1.219,5.036,0.214l65.7,70.271c0.748,0.8,1.091,1.897,0.932,2.981
				c-0.16,1.083-0.806,2.035-1.753,2.585l-10.574,6.139C423.508,322.569,422.886,322.729,422.267,322.729z M402.937,296.225
				c0.94,0,1.858,0.369,2.542,1.052l17.373,17.356l4.276-2.482l-60.202-64.391l-12.666,11.43l18.832,20.845
				c0.384,0.425,0.66,0.935,0.807,1.487l5.544,20.86l22.564-6.035C402.314,296.265,402.627,296.225,402.937,296.225z"/>
		</g>
		<g>
			<path d="M87.47,358.179H40.377c-1.347,0-2.582-0.753-3.198-1.951c-0.617-1.197-0.512-2.64,0.271-3.735l79.88-111.86
				c0.704-0.985,1.859-1.562,3.067-1.503c1.21,0.047,2.316,0.7,2.941,1.738l32.116,53.313c0.889,1.475,0.607,3.373-0.672,4.526
				l-64.903,58.548C89.218,357.849,88.36,358.179,87.47,358.179z M47.365,350.985h38.722l61.674-55.636l-27.76-46.081
				L47.365,350.985z"/>
		</g>
		<g>
			<path d="M115.258,300.458c-0.937,0-1.856-0.365-2.544-1.054L99.629,286.32l-8.79,2.359c-1.466,0.394-3.022-0.176-3.888-1.424
				c-0.865-1.248-0.854-2.905,0.029-4.141l30.351-42.484c0.704-0.985,1.859-1.562,3.067-1.503c1.21,0.047,2.315,0.7,2.94,1.737
				l13.011,21.587c0.583,0.968,0.678,2.153,0.255,3.202c-0.423,1.048-1.313,1.836-2.405,2.129l-14.896,3.988l-0.449,25.153
				c-0.026,1.442-0.912,2.73-2.25,3.271C116.167,300.372,115.71,300.458,115.258,300.458z M100.704,278.711
				c0.941,0,1.86,0.37,2.543,1.054l8.564,8.564l0.346-19.395c0.029-1.604,1.116-2.995,2.666-3.41l12.896-3.453l-7.717-12.805
				L98.667,279.13l1.104-0.296C100.079,278.751,100.393,278.711,100.704,278.711z"/>
		</g>
		<g>
			<path d="M255.042,291.216c-0.373,0-0.749-0.058-1.114-0.177c-1.181-0.385-2.08-1.353-2.378-2.559l-6.709-27.2l-22.53,6.019
				c-0.92,0.247-1.904,0.116-2.73-0.361c-0.826-0.479-1.428-1.266-1.674-2.188l-6.467-24.274c-0.347-1.304,0.064-2.693,1.067-3.597
				l45.65-41.166c1.456-1.313,3.697-1.218,5.037,0.216l31.867,34.131c0.789,0.845,1.124,2.017,0.899,3.151
				c-0.224,1.134-0.979,2.091-2.029,2.573l-19.221,8.812l16.504,11.372c0.924,0.637,1.498,1.669,1.552,2.79
				s-0.419,2.203-1.278,2.925l-34.132,28.689C256.7,290.925,255.877,291.216,255.042,291.216z M247.455,253.262
				c0.638,0,1.271,0.17,1.831,0.5c0.832,0.492,1.43,1.297,1.662,2.235l6.204,25.151l26.096-21.935l-17.831-12.287
				c-1.065-0.734-1.654-1.984-1.542-3.273s0.908-2.419,2.084-2.958l20.442-9.372l-26.051-27.901l-41.392,37.326l4.975,18.671
				l22.595-6.036C246.832,253.302,247.144,253.262,247.455,253.262z"/>
		</g>
		<g>
			<path d="M269.49,358.179c-0.004,0-0.012,0.001-0.02,0H134.363c-1.44,0-2.742-0.859-3.308-2.184
				c-0.566-1.325-0.287-2.859,0.709-3.9l75.502-78.891c0.729-0.761,1.749-1.162,2.808-1.104c1.052,0.062,2.025,0.581,2.66,1.423
				l59.408,78.63c0.586,0.64,0.944,1.492,0.944,2.429C273.088,356.568,271.478,358.179,269.49,358.179z M142.784,350.985h119.461
				l-52.702-69.755L142.784,350.985z"/>
		</g>
		<g>
			<path d="M207.601,324.315c-0.338,0-0.68-0.048-1.015-0.146c-1.286-0.378-2.254-1.439-2.514-2.755l-2.271-11.516l-6.752,2.237
				c-0.968,0.32-2.028,0.215-2.914-0.29c-0.886-0.506-1.516-1.364-1.732-2.362l-2.662-12.277c-0.245-1.127,0.067-2.304,0.837-3.163
				l18.609-20.753c0.717-0.8,1.749-1.23,2.828-1.192c1.073,0.045,2.07,0.567,2.719,1.425l13.035,17.239
				c0.625,0.826,0.863,1.882,0.653,2.896c-0.209,1.015-0.846,1.89-1.747,2.401l-5.725,3.25l4.934,4.188
				c0.757,0.644,1.215,1.57,1.265,2.563c0.049,0.992-0.313,1.961-1.002,2.676l-13.956,14.479
				C209.503,323.929,208.564,324.315,207.601,324.315z M204.542,301.604c0.63,0,1.256,0.166,1.812,0.49
				c0.892,0.52,1.517,1.397,1.717,2.411l1.726,8.753l6.513-6.757l-5.935-5.039c-0.896-0.761-1.363-1.91-1.253-3.079
				c0.11-1.169,0.784-2.211,1.805-2.791l6.632-3.765l-7.929-10.485l-14.468,16.135l1.425,6.571l6.825-2.262
				C203.779,301.665,204.162,301.604,204.542,301.604z"/>
		</g>
		<g>
			<path d="M260.565,201.981c-1.986,0-3.597-1.61-3.597-3.597V122.11c0-1.986,1.61-3.597,3.597-3.597s3.597,1.61,3.597,3.597v76.274
				C264.162,200.371,262.552,201.981,260.565,201.981z"/>
		</g>
		<g>
			<path d="M316.509,170.12c-0.005,0-0.012,0.001-0.02,0h-55.924c-1.986,0-3.597-1.61-3.597-3.597v-37.105
				c0-1.986,1.61-3.597,3.597-3.597h55.924c1.544,0,2.915,0.985,3.408,2.448s-0.002,3.077-1.231,4.012l-19.01,14.458l19.002,16.9
				c0.879,0.656,1.448,1.704,1.448,2.885C320.106,168.509,318.496,170.12,316.509,170.12z M264.162,162.926h42.871l-15.424-13.718
				c-0.803-0.714-1.245-1.751-1.203-2.826c0.041-1.074,0.561-2.074,1.417-2.725l13.995-10.644h-41.656V162.926z"/>
		</g>
		<g>
			<path d="M342.088,375.556H53.015c-1.986,0-3.597-1.61-3.597-3.597s1.61-3.597,3.597-3.597h289.073
				c1.986,0,3.597,1.61,3.597,3.597S344.074,375.556,342.088,375.556z"/>
		</g>
		<g>
			<path d="M422.34,393.486H222.279c-1.986,0-3.597-1.61-3.597-3.597s1.61-3.597,3.597-3.597H422.34c1.986,0,3.597,1.61,3.597,3.597
				S424.326,393.486,422.34,393.486z"/>
		</g>
		<g>
			<path d="M467.792,393.486H442.79c-1.986,0-3.597-1.61-3.597-3.597s1.61-3.597,3.597-3.597h25.002c1.986,0,3.597,1.61,3.597,3.597
				S469.778,393.486,467.792,393.486z"/>
		</g>
		<g>
			<path d="M136.427,392.933H41.62c-1.986,0-3.597-1.61-3.597-3.597s1.61-3.597,3.597-3.597h94.807c1.986,0,3.597,1.61,3.597,3.597
				S138.413,392.933,136.427,392.933z"/>
		</g>
		<g>
			<path d="M191.449,146.84h-79.68c-9.927,0-18.003-8.04-18.003-17.922c0-8.67,6.153-15.928,14.319-17.634
				c0.427-8.609,6.963-15.64,15.354-16.842c2.413-7.203,9.145-12.179,16.963-12.179c2.302,0,4.467,0.386,6.47,1.15
				c3.84-4.438,9.355-7.01,15.288-7.01c10.556,0,19.262,8.1,20.272,18.433c0.86-0.111,1.744-0.167,2.649-0.167
				c11.232,0,20.37,9.166,20.37,20.432c0,0.827-0.043,1.614-0.134,2.395c2.655,3.234,4.098,7.224,4.098,11.422
				C209.415,138.8,201.355,146.84,191.449,146.84z M111.769,118.098c-5.96,0-10.81,4.854-10.81,10.82
				c0,5.916,4.85,10.729,10.81,10.729h79.68c5.94,0,10.773-4.813,10.773-10.729c0-2.902-1.159-5.649-3.263-7.733
				c-0.869-0.86-1.241-2.103-0.988-3.299c0.198-0.938,0.287-1.796,0.287-2.785c0-7.3-5.911-13.239-13.177-13.239
				c-1.798,0-3.419,0.329-4.819,0.977c-1.182,0.549-2.57,0.413-3.626-0.354c-1.055-0.767-1.612-2.045-1.456-3.34
				c0.105-0.871,0.156-1.622,0.156-2.297c0-7.306-5.911-13.25-13.176-13.25c-4.53,0-8.693,2.345-11.135,6.272
				c-0.507,0.815-1.319,1.395-2.255,1.608s-1.919,0.043-2.729-0.472c-1.639-1.042-3.484-1.549-5.639-1.549
				c-5.267,0-9.71,3.778-10.565,8.983c-0.286,1.738-1.788,3.014-3.549,3.014h-0.292c-5.921,0-10.739,4.813-10.739,10.728
				c0,0.55,0.085,1.175,0.178,1.768c0.161,1.038-0.139,2.094-0.823,2.892c-0.683,0.798-1.681,1.257-2.731,1.257H111.769z"/>
		</g>
	</g>
</g>
<g id="Layer_1">
</g>
</svg>
